<svg width="17" height="16" viewBox="0 0 17 16" fill="none" xmlns="http://www.w3.org/2000/svg">
<path d="M8.65624 0C9.73866 0 10.7767 0.421427 11.5421 1.17157C12.3075 1.92172 12.7375 2.93913 12.7375 4C12.7375 5.06087 12.3075 6.07828 11.5421 6.82843C10.7767 7.57857 9.73866 8 8.65624 8C7.57383 8 6.53575 7.57857 5.77036 6.82843C5.00498 6.07828 4.57499 5.06087 4.57499 4C4.57499 2.93913 5.00498 1.92172 5.77036 1.17157C6.53575 0.421427 7.57383 0 8.65624 0ZM8.65624 10C13.166 10 16.8187 11.79 16.8187 14V16H0.493744V14C0.493744 11.79 4.14646 10 8.65624 10Z" fill="white"/>
</svg>
