<svg width="20" height="19" viewBox="0 0 20 19" fill="none" xmlns="http://www.w3.org/2000/svg">
<path d="M19.1313 17L13.8726 11.846C14.8448 10.3979 15.2341 8.64774 14.9653 6.93442C14.6965 5.22111 13.7887 3.66648 12.4175 2.57154C11.0463 1.47659 9.30942 0.919227 7.54304 1.00735C5.77666 1.09547 4.10647 1.82281 2.85583 3.04855C1.6052 4.27429 0.863081 5.91123 0.77317 7.64245C0.683258 9.37366 1.25195 11.076 2.36913 12.4199C3.48631 13.7637 5.07252 14.6535 6.82064 14.917C8.56876 15.1804 10.3544 14.7988 11.832 13.846L17.0906 19L19.1313 17ZM2.80627 7.99998C2.80627 5.24298 5.09483 2.99998 7.90784 2.99998C10.7208 2.99998 13.0094 5.24298 13.0094 7.99998C13.0094 10.757 10.7208 13 7.90784 13C5.09483 13 2.80627 10.757 2.80627 7.99998Z" fill="white"/>
</svg>
